# xmcd
#
# Track frame offsets: 
#        150
#        17603
#        34753
#        49850
#        68569
#        85822
#        102071
#        119269
#        135751
#        151653
#
# Disc length: 2254 seconds
#
# Revision: 0
# Processed by: cddbd v1.5.2PL0 Copyright (c) Steve Scherf et al.
# Submitted via: ExactAudioCopyFreeDBPlugin 1.0
#
DISCID=6908cc0a
DTITLE=Henning Kvitnes - Ingen tid å miste
DYEAR=2011
DGENRE=Folk/Rock
TTITLE0=Sensommerblues
TTITLE1=Ingen tid å miste
TTITLE2=Sydstatshjerte
TTITLE3=Tida gled forbi
TTITLE4=Ingens feil, bare min
TTITLE5=Kom igjen
TTITLE6=Vesterbro 88
TTITLE7=Yingel Yangel
TTITLE8=Da vi ble du og jeg
TTITLE9=Det hemmelige landet
EXTD=
EXTT0=
EXTT1=
EXTT2=
EXTT3=
EXTT4=
EXTT5=
EXTT6=
EXTT7=
EXTT8=
EXTT9=
PLAYORDER=
